# Blender v3.2.1 OBJ File: ''
# www.blender.org
mtllib ShipSmall.mtl
o Cube_Material.001_0
v 2.928183 3.118989 30.144310
v 2.976016 3.729706 30.027279
v 3.710166 3.712789 30.827032
v 3.718541 3.107506 30.806541
v 3.369153 3.073732 31.661371
v 3.360778 3.679016 31.681862
v 3.011390 3.645242 32.536694
v 3.019765 3.039958 32.516201
v -0.390743 3.039217 31.144140
v -0.442052 3.645181 31.269674
v -1.116458 3.734881 30.333942
v -1.089097 3.059249 30.267002
v -1.205151 3.073732 29.791758
v -1.344931 3.751102 29.761389
v -0.780830 3.767324 29.512775
v -0.789445 3.088215 29.533855
v -0.021921 2.223050 30.241758
v -0.344395 2.725525 31.030741
v -0.810808 2.743203 30.317924
v -0.817040 2.580708 29.930908
v 3.377110 2.498689 31.641905
v 3.065214 2.726180 32.405006
v 2.051230 2.716046 32.289909
v 2.471774 2.223050 31.260984
v 2.471774 2.223050 31.260984
v 2.051230 2.716046 32.289909
v 0.918139 2.716046 31.826792
v 1.339688 2.150398 30.795406
v 1.339688 2.150398 30.795406
v 0.918139 2.716046 31.826792
v -0.344395 2.725525 31.030741
v -0.021921 2.223050 30.241758
v 3.019765 3.039958 32.516201
v 3.011390 3.645242 32.536694
v 1.927240 3.628325 32.593269
v 1.991824 3.028476 32.435257
v 1.991824 3.028476 32.435257
v 1.927240 3.628325 32.593269
v 0.794082 3.633149 32.130314
v 0.858732 3.028475 31.972137
v 0.858732 3.028475 31.972137
v 0.794082 3.633149 32.130314
v -0.442052 3.645181 31.269674
v -0.390743 3.039217 31.144140
v -0.789445 3.088215 29.533855
v -0.780830 3.767324 29.512775
v 0.357785 3.722497 29.312750
v 0.323360 3.108247 29.396975
v 0.323360 3.108247 29.396975
v 0.357785 3.722497 29.312750
v 1.842858 3.734529 29.564323
v 1.795091 3.118989 29.681192
v 1.795091 3.118989 29.681192
v 1.842858 3.734529 29.564323
v 2.976016 3.729706 30.027279
v 2.928183 3.118989 30.144310
v 1.744478 2.795924 29.805023
v 1.339688 2.150398 30.795406
v -0.021921 2.223050 30.241758
v 0.285804 2.786444 29.488861
v 2.877570 2.795924 30.268143
v 2.471774 2.223050 31.260984
v 1.339688 2.150398 30.795406
v 1.744478 2.795924 29.805023
v 3.681886 2.785790 30.896223
v 3.377110 2.498689 31.641905
v 2.471774 2.223050 31.260984
v 2.877570 2.795924 30.268143
v 0.285804 2.786444 29.488861
v -0.021921 2.223050 30.241758
v -0.817040 2.580708 29.930908
v -0.546363 2.768766 29.670919
v -1.089097 3.059249 30.267002
v -1.116458 3.734881 30.333942
v -1.344931 3.751102 29.761389
v -1.205151 3.073732 29.791758
v 3.718541 3.107506 30.806541
v 3.710166 3.712789 30.827032
v 3.360778 3.679016 31.681862
v 3.369153 3.073732 31.661371
v 3.681886 2.785790 30.896223
v 3.377110 2.498689 31.641905
v -0.810808 2.743203 30.317924
v -1.089097 3.059249 30.267002
v -1.205151 3.073732 29.791758
v -0.817040 2.580708 29.930908
v 1.744478 2.795924 29.805023
v 1.795091 3.118989 29.681192
v 2.928183 3.118989 30.144310
v 2.877570 2.795924 30.268143
v 0.285804 2.786444 29.488861
v 0.323360 3.108247 29.396975
v 1.795091 3.118989 29.681192
v 1.744478 2.795924 29.805023
v -0.546363 2.768766 29.670919
v -0.789445 3.088215 29.533855
v 0.323360 3.108247 29.396975
v 0.285804 2.786444 29.488861
v 0.918139 2.716046 31.826792
v 0.858732 3.028475 31.972137
v -0.390743 3.039217 31.144140
v -0.344395 2.725525 31.030741
v 2.051230 2.716046 32.289909
v 1.991824 3.028476 32.435257
v 0.858732 3.028475 31.972137
v 0.918139 2.716046 31.826792
v 3.065214 2.726180 32.405006
v 3.019765 3.039958 32.516201
v 1.991824 3.028476 32.435257
v 2.051230 2.716046 32.289909
v -0.817040 2.580708 29.930908
v -1.205151 3.073732 29.791758
v -0.789445 3.088215 29.533855
v -0.546363 2.768766 29.670919
v -0.344395 2.725525 31.030741
v -0.390743 3.039217 31.144140
v -1.089097 3.059249 30.267002
v -0.810808 2.743203 30.317924
v 3.377110 2.498689 31.641905
v 3.369153 3.073732 31.661371
v 3.019765 3.039958 32.516201
v 3.065214 2.726180 32.405006
v 2.877570 2.795924 30.268143
v 2.928183 3.118989 30.144310
v 3.718541 3.107506 30.806541
v 3.681886 2.785790 30.896223
v -0.184114 3.374110 31.141758
v -0.767819 3.392812 30.350752
v -0.787909 3.727536 30.399904
v -0.208996 3.641017 31.202635
v 3.136077 3.304053 31.575209
v 2.836229 3.275068 32.308830
v 2.831174 3.640386 32.321198
v 3.131022 3.669371 31.587576
v -0.767819 3.392812 30.350752
v -0.997029 3.405241 29.889919
v -1.001682 3.741458 29.901300
v -0.787909 3.727536 30.399904
v 0.883333 3.364421 31.864254
v -0.184114 3.374110 31.141758
v -0.208996 3.641017 31.202635
v 0.851866 3.630692 31.941244
v 1.857162 3.263232 32.258282
v 0.883333 3.364421 31.864254
v 0.851866 3.630692 31.941244
v 1.824362 3.625868 32.338531
v 2.836229 3.275068 32.308830
v 1.857162 3.263232 32.258282
v 1.824362 3.625868 32.338531
v 2.831174 3.640386 32.321198
v 1.727910 3.446062 29.797867
v 2.701740 3.344873 30.191893
v 2.724430 3.712874 30.136375
v 1.751934 3.717697 29.739088
v -0.997029 3.405241 29.889919
v -0.510655 3.417671 29.721560
v -0.499870 3.755380 29.695171
v -1.001682 3.741458 29.901300
v -0.510655 3.417671 29.721560
v 0.459993 3.436373 29.565851
v 0.477432 3.707371 29.523184
v -0.499870 3.755380 29.695171
v 3.435924 3.333038 30.841585
v 3.136077 3.304053 31.575209
v 3.131022 3.669371 31.587576
v 3.430870 3.698356 30.853952
v 0.459993 3.436373 29.565851
v 1.727910 3.446062 29.797867
v 1.751934 3.717697 29.739088
v 0.477432 3.707371 29.523184
v 2.701740 3.344873 30.191893
v 3.435924 3.333038 30.841585
v 3.430870 3.698356 30.853952
v 2.724430 3.712874 30.136375
v 0.459993 3.436373 29.565851
v -0.184114 3.374110 31.141758
v -0.132599 2.974916 31.082945
v 0.466673 3.032844 29.616734
v 1.701743 3.041859 29.855247
v 1.727910 3.446062 29.797867
v 0.459993 3.436373 29.565851
v 0.466673 3.032844 29.616734
v 2.652628 3.041859 30.243895
v 2.701740 3.344873 30.191893
v 1.727910 3.446062 29.797867
v 1.701743 3.041859 29.855247
v 2.701740 3.344873 30.191893
v 2.652628 3.041859 30.243895
v 1.866840 2.965901 32.166443
v 1.857162 3.263232 32.258282
v 0.915955 2.965901 31.777798
v 0.883333 3.364421 31.864254
v 1.857162 3.263232 32.258282
v 1.866840 2.965901 32.166443
v -0.184114 3.374110 31.141758
v 0.883333 3.364421 31.864254
v 0.915955 2.965901 31.777798
v -0.132599 2.974916 31.082945
v 0.466673 3.032844 29.616734
v -0.132599 2.974916 31.082945
v 0.915955 2.965901 31.777798
v 1.701743 3.041859 29.855247
v 1.866840 2.965901 32.166443
v 2.652628 3.041859 30.243895
v 3.710166 3.712789 30.827032
v 2.976016 3.729706 30.027279
v 2.724430 3.712874 30.136375
v 3.430870 3.698356 30.853952
v 2.724430 3.712874 30.136375
v 2.976016 3.729706 30.027279
v 1.842858 3.734529 29.564323
v 1.751934 3.717697 29.739088
v 1.751934 3.717697 29.739088
v 1.842858 3.734529 29.564323
v 0.357785 3.722497 29.312750
v 0.477432 3.707371 29.523184
v 0.477432 3.707371 29.523184
v 0.357785 3.722497 29.312750
v -0.780830 3.767324 29.512775
v -0.499870 3.755380 29.695171
v -0.499870 3.755380 29.695171
v -0.780830 3.767324 29.512775
v -1.344931 3.751102 29.761389
v -1.001682 3.741458 29.901300
v -1.001682 3.741458 29.901300
v -1.344931 3.751102 29.761389
v -1.116458 3.734881 30.333942
v -0.787909 3.727536 30.399904
v -0.787909 3.727536 30.399904
v -1.116458 3.734881 30.333942
v -0.442052 3.645181 31.269674
v -0.208996 3.641017 31.202635
v -0.208996 3.641017 31.202635
v -0.442052 3.645181 31.269674
v 0.794082 3.633149 32.130314
v 0.851866 3.630692 31.941244
v 0.851866 3.630692 31.941244
v 0.794082 3.633149 32.130314
v 1.927240 3.628325 32.593269
v 1.824362 3.625868 32.338531
v 1.824362 3.625868 32.338531
v 1.927240 3.628325 32.593269
v 3.011390 3.645242 32.536694
v 2.831174 3.640386 32.321198
v 2.831174 3.640386 32.321198
v 3.011390 3.645242 32.536694
v 3.360778 3.679016 31.681862
v 3.131022 3.669371 31.587576
v 3.131022 3.669371 31.587576
v 3.360778 3.679016 31.681862
v 3.710166 3.712789 30.827032
v 3.430870 3.698356 30.853952
v -0.510655 3.417671 29.721560
v -0.997029 3.405241 29.889919
v -0.767819 3.392812 30.350752
v -0.184114 3.374110 31.141758
v 0.459993 3.436373 29.565851
v 2.836229 3.275068 32.308830
v 3.136077 3.304053 31.575209
v 3.435924 3.333038 30.841585
v 2.701740 3.344873 30.191893
v 1.857162 3.263232 32.258282
vt 1.002329 0.387426
vt 0.941310 0.555090
vt 0.839997 0.478983
vt 0.855477 0.359126
vt 0.855474 0.359134
vt 0.839998 0.478989
vt 0.941314 0.555083
vt 1.002320 0.387423
vt 0.872409 0.260906
vt 1.002320 0.191333
vt 0.556003 0.215400
vt 0.552303 0.317798
vt 0.728966 0.332664
vt 0.741417 0.216683
vt 0.741418 0.216691
vt 0.728971 0.332669
vt 0.552308 0.317796
vt 0.556015 0.215403
vt 1.002320 0.191331
vt 1.002329 0.387426
vt 0.855477 0.359126
vt 0.872412 0.260908
vt 0.898751 0.692600
vt 0.808106 0.616664
vt 0.825816 0.509349
vt 0.917215 0.583083
vt 0.808097 0.616664
vt 0.898749 0.692598
vt 0.917217 0.583085
vt 0.825815 0.509351
vt 0.338361 0.602563
vt 0.218652 0.993604
vt 0.308450 0.995046
vt 0.380038 0.662975
vt 0.687485 0.610439
vt 0.663454 0.652271
vt 0.787728 0.995722
vt 0.850160 0.994093
vt 0.380038 0.662975
vt 0.308450 0.995046
vt 0.565709 0.993577
vt 0.540165 0.640902
vt 0.787728 0.995722
vt 0.663454 0.652271
vt 0.542649 0.486676
vt 0.548883 0.460324
vt 0.313845 0.456877
vt 0.335818 0.490659
vt 0.335818 0.490662
vt 0.313851 0.456879
vt 0.548888 0.460322
vt 0.542656 0.486669
vt 0.825816 0.509349
vt 0.839997 0.478983
vt 0.941310 0.555090
vt 0.917215 0.583083
vt 0.917217 0.583085
vt 0.941314 0.555083
vt 0.839998 0.478989
vt 0.825815 0.509351
vt 0.162913 0.631279
vt 0.218652 0.993604
vt 0.338361 0.602563
vt 0.070660 0.653638
vt 0.121852 0.843540
vt 0.850160 0.994093
vt 0.808097 0.616664
vt 0.687485 0.610439
vt 0.898749 0.692598
vt 0.986250 0.888904
vt 0.728966 0.332664
vt 0.711992 0.470450
vt 0.839998 0.478989
vt 0.855474 0.359134
vt 0.308867 0.316115
vt 0.313851 0.456879
vt 0.113987 0.466075
vt 0.111890 0.312276
vt 0.015143 0.278150
vt -0.001374 0.477017
vt 0.113986 0.466077
vt 0.111885 0.312274
vt 0.255495 0.008935
vt 0.305916 0.218334
vt 0.157732 0.199058
vt 0.079770 0.120819
vt 1.002320 0.191331
vt 0.872412 0.260908
vt 0.741418 0.216691
vt 0.848360 0.012225
vt 0.848360 0.012225
vt 0.741418 0.216691
vt 0.556015 0.215403
vt 0.572298 0.003816
vt 0.572298 0.003816
vt 0.556015 0.215403
vt 0.305916 0.218334
vt 0.255495 0.008935
vt 0.855477 0.359126
vt 0.839997 0.478983
vt 0.711993 0.470450
vt 0.728971 0.332669
vt 0.728971 0.332669
vt 0.711993 0.470450
vt 0.548888 0.460322
vt 0.552308 0.317796
vt 0.552308 0.317796
vt 0.548888 0.460322
vt 0.313851 0.456879
vt 0.308867 0.316115
vt 0.111885 0.312274
vt 0.113986 0.466077
vt 0.313845 0.456877
vt 0.308862 0.316113
vt 0.308862 0.316113
vt 0.313845 0.456877
vt 0.548883 0.460324
vt 0.552303 0.317798
vt 0.552303 0.317798
vt 0.548883 0.460324
vt 0.711992 0.470450
vt 0.728966 0.332664
vt 0.556003 0.215400
vt 0.572299 0.003820
vt 0.255491 0.008939
vt 0.305919 0.218328
vt 0.741417 0.216683
vt 0.848359 0.012217
vt 0.572299 0.003820
vt 0.556003 0.215400
vt 0.872409 0.260906
vt 1.002320 0.191333
vt 0.848359 0.012217
vt 0.741417 0.216683
vt 0.305919 0.218328
vt 0.255491 0.008939
vt 0.079770 0.120812
vt 0.157731 0.199054
vt 0.111890 0.312276
vt 0.113987 0.466075
vt -0.001374 0.477017
vt 0.015141 0.278148
vt 0.157732 0.199058
vt 0.111890 0.312276
vt 0.015141 0.278148
vt 0.079770 0.120819
vt 0.305919 0.218328
vt 0.308862 0.316113
vt 0.552303 0.317798
vt 0.556003 0.215400
vt 0.157731 0.199054
vt 0.111885 0.312274
vt 0.308862 0.316113
vt 0.305919 0.218328
vt 0.556015 0.215403
vt 0.552308 0.317796
vt 0.308867 0.316115
vt 0.305916 0.218334
vt 0.872412 0.260908
vt 0.855477 0.359126
vt 0.728971 0.332669
vt 0.741418 0.216691
vt 0.079770 0.120812
vt 0.015143 0.278150
vt 0.111885 0.312274
vt 0.157731 0.199054
vt 0.305916 0.218334
vt 0.308867 0.316115
vt 0.111890 0.312276
vt 0.157732 0.199058
vt 0.741417 0.216683
vt 0.728966 0.332664
vt 0.855474 0.359134
vt 0.872409 0.260906
vt 0.338367 0.602561
vt 0.162916 0.631281
vt 0.157429 0.507355
vt 0.335818 0.490662
vt 0.162916 0.631281
vt 0.070663 0.653640
vt 0.056790 0.524998
vt 0.157429 0.507355
vt 0.540961 0.590167
vt 0.338367 0.602561
vt 0.335818 0.490662
vt 0.542656 0.486669
vt 0.687481 0.610438
vt 0.540961 0.590167
vt 0.542656 0.486669
vt 0.690307 0.497055
vt 0.808106 0.616664
vt 0.687481 0.610438
vt 0.690307 0.497055
vt 0.825816 0.509349
vt 0.540963 0.590168
vt 0.687485 0.610439
vt 0.690303 0.497056
vt 0.542649 0.486676
vt 0.070660 0.653638
vt 0.162913 0.631279
vt 0.157428 0.507359
vt 0.056790 0.524999
vt 0.162913 0.631279
vt 0.338361 0.602563
vt 0.335818 0.490659
vt 0.157428 0.507359
vt 0.338361 0.602563
vt 0.540963 0.590168
vt 0.542649 0.486676
vt 0.335818 0.490659
vt 0.687485 0.610439
vt 0.808097 0.616664
vt 0.825815 0.509351
vt 0.690303 0.497056
vt 0.540165 0.640902
vt 0.540963 0.590168
vt 0.338361 0.602563
vt 0.380038 0.662975
vt 0.663454 0.652271
vt 0.687485 0.610439
vt 0.540963 0.590168
vt 0.540165 0.640902
vt 0.540173 0.640901
vt 0.540961 0.590167
vt 0.687481 0.610438
vt 0.663458 0.652264
vt 0.338367 0.602561
vt 0.540961 0.590167
vt 0.540173 0.640901
vt 0.380041 0.662975
vt 0.839998 0.478989
vt 0.711992 0.470450
vt 0.690303 0.497056
vt 0.825815 0.509351
vt 0.690303 0.497056
vt 0.711992 0.470450
vt 0.548883 0.460324
vt 0.542649 0.486676
vt 0.335818 0.490659
vt 0.313845 0.456877
vt 0.113986 0.466077
vt 0.157428 0.507359
vt 0.157428 0.507359
vt 0.113986 0.466077
vt -0.001374 0.477017
vt 0.056790 0.524999
vt 0.056790 0.524998
vt -0.001374 0.477017
vt 0.113987 0.466075
vt 0.157429 0.507355
vt 0.157429 0.507355
vt 0.113987 0.466075
vt 0.313851 0.456879
vt 0.335818 0.490662
vt 0.542656 0.486669
vt 0.548888 0.460322
vt 0.711993 0.470450
vt 0.690307 0.497055
vt 0.690307 0.497055
vt 0.711993 0.470450
vt 0.839997 0.478983
vt 0.825816 0.509349
vn 0.9257 0.0000 0.3783
vn 0.3496 -0.3826 -0.8552
vn -0.3381 -0.4491 0.8271
vn -0.3380 -0.4490 0.8271
vn -0.9257 -0.0000 -0.3783
vn 0.9229 0.0632 0.3797
vn -0.9235 0.0855 -0.3741
vn -0.0138 0.9993 0.0338
vn -0.0224 0.9962 0.0843
vn 0.0155 0.9998 -0.0083
vn -0.0498 0.9986 0.0191
vn 0.6892 -0.0795 -0.7202
vn -0.7936 -0.1377 0.5926
vn -0.4559 -0.0777 -0.8866
vn -0.4996 -0.8047 0.3208
vn -0.4996 -0.8047 0.3207
vn 0.0375 -0.9218 0.3859
vn -0.1381 -0.9028 0.4074
vn -0.1381 -0.9027 0.4074
vn -0.2413 -0.8768 0.4158
vn -0.0094 -0.1471 0.9891
vn -0.3644 -0.2728 0.8904
vn -0.3644 -0.2729 0.8903
vn -0.5470 -0.2403 0.8019
vn -0.1484 -0.0753 -0.9861
vn -0.1484 -0.0754 -0.9861
vn 0.1770 -0.1703 -0.9694
vn 0.1770 -0.1704 -0.9694
vn 0.3702 -0.2020 -0.9067
vn 0.3702 -0.2019 -0.9068
vn 0.3701 -0.2018 -0.9068
vn 0.1428 -0.8397 -0.5239
vn 0.2113 -0.8690 -0.4475
vn 0.2113 -0.8689 -0.4476
vn 0.3222 -0.8942 -0.3107
vn 0.3222 -0.8942 -0.3106
vn 0.3222 -0.8943 -0.3106
vn -0.1102 -0.7672 -0.6319
vn -0.1102 -0.7671 -0.6320
vn -0.9436 -0.1248 0.3066
vn -0.9436 -0.1249 0.3066
vn -0.7782 -0.5912 0.2119
vn -0.7782 -0.5912 0.2118
vn 0.1913 -0.3348 -0.9226
vn 0.1913 -0.3348 -0.9227
vn -0.1431 -0.3731 -0.9167
vn -0.4995 -0.4016 0.7676
vn -0.0839 -0.3898 0.9171
vn -0.3912 -0.5538 -0.7350
vn -0.3916 -0.5537 -0.7349
vn -0.7331 -0.4302 0.5268
vn 0.5923 -0.3244 -0.7375
vn 0.8020 0.1650 -0.5741
vn 0.8020 0.1649 -0.5741
vn 0.9063 0.0710 -0.4165
vn 0.9064 0.0710 -0.4165
vn 0.5477 0.2632 -0.7942
vn 0.5477 0.2633 -0.7942
vn 0.3758 0.2607 -0.8893
vn 0.0149 0.1270 -0.9918
vn 0.0149 0.1269 -0.9918
vn -0.3609 0.1895 0.9131
vn 0.3539 0.0176 0.9351
vn 0.1665 0.1035 0.9806
vn -0.1717 0.1937 0.9659
vn -0.6866 0.0592 0.7246
vn -0.6866 0.0591 0.7246
vn -0.1840 0.1349 0.9736
vn -0.1840 0.1350 0.9736
vn -0.3624 0.1800 0.9145
vn 0.3759 0.2514 -0.8919
vn 0.5459 0.2055 -0.8123
vn -0.0430 0.9972 0.0615
vn -0.0430 0.9972 0.0614
vn -0.0293 0.9961 0.0829
vn -0.0292 0.9961 0.0828
vn 0.0474 0.9987 0.0205
vn 0.0001 0.9978 0.0662
vn 0.0002 0.9978 0.0664
vn 0.0002 0.9978 0.0669
vn 0.0002 0.9978 0.0666
vn 0.0190 0.9996 0.0202
vn 0.0192 0.9996 0.0203
vn 0.0187 0.9996 0.0202
vn 0.0206 0.9961 0.0861
vn 0.0095 0.9999 -0.0120
vn 0.0095 0.9999 -0.0121
vn -0.0153 0.9999 -0.0063
vn -0.0153 0.9999 -0.0064
usemtl Material.001
s off
f 5/1/1 6/2/1 7/3/1
f 5/1/1 7/3/1 8/4/1
f 77/5/1 78/6/1 79/7/1
f 77/5/1 79/7/1 80/8/1
f 81/9/1 77/5/1 80/8/1
f 81/9/1 80/8/1 82/10/1
f 87/11/2 88/12/2 89/13/2
f 87/11/2 89/13/2 90/14/2
f 103/15/3 104/16/3 105/17/3
f 103/15/4 105/17/4 106/18/4
f 119/19/1 120/20/1 121/21/1
f 119/19/1 121/21/1 122/22/1
f 131/23/5 132/24/5 133/25/5
f 131/23/5 133/25/5 134/26/5
f 163/27/5 164/28/5 165/29/5
f 163/27/5 165/29/5 166/30/5
f 175/31/6 176/32/6 177/33/6
f 175/31/6 177/33/6 178/34/6
f 187/35/7 188/36/7 189/37/7
f 187/35/7 189/37/7 190/38/7
f 199/39/8 200/40/8 201/41/8
f 199/39/8 201/41/8 202/42/8
f 203/43/8 204/44/8 202/42/8
f 203/43/8 202/42/8 201/41/8
f 213/45/9 214/46/9 215/47/9
f 213/45/9 215/47/9 216/48/9
f 233/49/10 234/50/10 235/51/10
f 233/49/10 235/51/10 236/52/10
f 245/53/11 246/54/11 247/55/11
f 245/53/11 247/55/11 248/56/11
f 249/57/11 250/58/11 251/59/11
f 249/57/11 251/59/11 252/60/11
f 253/61/8 256/62/8 257/63/8
f 256/62/8 253/61/8 254/64/8
f 256/62/8 254/64/8 255/65/8
f 262/66/8 260/67/8 261/68/8
f 260/67/8 262/66/8 259/69/8
f 259/69/8 262/66/8 258/70/8
s 1
f 1/71/12 2/72/12 3/73/12
f 1/71/12 3/73/12 4/74/12
f 9/75/13 10/76/13 11/77/13
f 9/75/13 11/77/13 12/78/13
f 13/79/14 14/80/14 15/81/14
f 13/79/14 15/81/14 16/82/14
f 17/83/15 18/84/16 19/85/16
f 17/83/15 19/85/16 20/86/16
f 21/87/17 22/88/17 23/89/17
f 21/87/17 23/89/17 24/90/17
f 25/91/18 26/92/19 27/93/19
f 25/91/18 27/93/19 28/94/19
f 29/95/20 30/96/20 31/97/20
f 29/95/20 31/97/20 32/98/20
f 33/99/21 34/100/21 35/101/21
f 33/99/21 35/101/21 36/102/21
f 37/103/22 38/104/23 39/105/23
f 37/103/22 39/105/23 40/106/22
f 41/107/24 42/108/24 43/109/24
f 41/107/24 43/109/24 44/110/24
f 45/111/25 46/112/26 47/113/25
f 45/111/25 47/113/25 48/114/25
f 49/115/27 50/116/27 51/117/28
f 49/115/27 51/117/28 52/118/27
f 53/119/29 54/120/30 55/121/31
f 53/119/29 55/121/31 56/122/30
f 57/123/32 58/124/32 59/125/32
f 57/123/32 59/125/32 60/126/32
f 61/127/33 62/128/33 63/129/34
f 61/127/33 63/129/34 64/130/33
f 65/131/35 66/132/36 67/133/37
f 65/131/35 67/133/37 68/134/35
f 69/135/38 70/136/39 71/137/39
f 69/135/38 71/137/39 72/138/39
f 73/139/40 74/140/40 75/141/41
f 73/139/40 75/141/41 76/142/40
f 83/143/42 84/144/42 85/145/43
f 83/143/42 85/145/43 86/146/43
f 91/147/44 92/148/45 93/149/45
f 91/147/44 93/149/45 94/150/45
f 95/151/46 96/152/46 97/153/46
f 95/151/46 97/153/46 98/154/46
f 99/155/47 100/156/47 101/157/47
f 99/155/47 101/157/47 102/158/47
f 107/159/48 108/160/48 109/161/48
f 107/159/48 109/161/48 110/162/48
f 111/163/49 112/164/49 113/165/50
f 111/163/49 113/165/50 114/166/49
f 115/167/51 116/168/51 117/169/51
f 115/167/51 117/169/51 118/170/51
f 123/171/52 124/172/52 125/173/52
f 123/171/52 125/173/52 126/174/52
f 127/175/53 128/176/54 129/177/54
f 127/175/53 129/177/54 130/178/53
f 135/179/55 136/180/55 137/181/56
f 135/179/55 137/181/56 138/182/55
f 139/183/57 140/184/57 141/185/57
f 139/183/57 141/185/57 142/186/58
f 143/187/59 144/188/59 145/189/59
f 143/187/59 145/189/59 146/190/59
f 147/191/60 148/192/60 149/193/61
f 147/191/60 149/193/61 150/194/60
f 151/195/62 152/196/62 153/197/62
f 151/195/62 153/197/62 154/198/62
f 155/199/63 156/200/63 157/201/63
f 155/199/63 157/201/63 158/202/63
f 159/203/64 160/204/64 161/205/64
f 159/203/64 161/205/64 162/206/64
f 167/207/65 168/208/65 169/209/65
f 167/207/65 169/209/65 170/210/65
f 171/211/66 172/212/67 173/213/67
f 171/211/66 173/213/67 174/214/67
f 179/215/68 180/216/69 181/217/68
f 179/215/68 181/217/68 182/218/68
f 183/219/70 184/220/70 185/221/70
f 183/219/70 185/221/70 186/222/70
f 191/223/71 192/224/71 193/225/71
f 191/223/71 193/225/71 194/226/71
f 195/227/72 196/228/72 197/229/72
f 195/227/72 197/229/72 198/230/72
f 205/231/73 206/232/73 207/233/74
f 205/231/73 207/233/74 208/234/73
f 209/235/75 210/236/75 211/237/76
f 209/235/75 211/237/76 212/238/76
f 217/239/77 218/240/77 219/241/77
f 217/239/77 219/241/77 220/242/77
f 221/243/78 222/244/79 223/245/80
f 221/243/78 223/245/80 224/246/81
f 225/247/82 226/248/83 227/249/84
f 225/247/82 227/249/84 228/250/82
f 229/251/85 230/252/85 231/253/85
f 229/251/85 231/253/85 232/254/85
f 237/255/86 238/256/86 239/257/87
f 237/255/86 239/257/87 240/258/87
f 241/259/88 242/260/88 243/261/89
f 241/259/88 243/261/89 244/262/89
