# Blender v3.2.1 OBJ File: 'SkyBox.blend'
# www.blender.org
mtllib SkyBox.mtl
o Cube
v 1.004873 1.004873 -1.004873
v 1.004873 -1.004873 -1.004873
v 1.004873 1.004873 1.004873
v 1.004873 -1.004873 1.004873
v -1.004873 1.004873 -1.004873
v -1.004873 -1.004873 -1.004873
v -1.004873 1.004873 1.004873
v -1.004873 -1.004873 1.004873
vt 0.333459 0.999930
vt 0.333600 0.749536
vt 0.666634 0.749437
vt 0.666628 0.999984
vt 0.666640 0.250013
vt 0.999977 0.250012
vt 0.999937 0.499963
vt 0.666667 0.499991
vt 0.333414 0.499960
vt 0.333478 0.250079
vt 0.333404 0.000053
vt 0.666623 0.000012
vt 0.000018 0.499992
vt 0.000210 0.250115
vn 0.0000 1.0000 0.0000
vn 0.0000 0.0000 1.0000
vn -1.0000 0.0000 0.0000
vn 0.0000 -1.0000 0.0000
vn 1.0000 0.0000 0.0000
vn 0.0000 0.0000 -1.0000
usemtl Material.006
s off
f 1/1/1 5/2/1 7/3/1 3/4/1
f 4/5/2 3/6/2 7/7/2 8/8/2
f 8/8/3 7/3/3 5/2/3 6/9/3
f 6/9/4 2/10/4 4/5/4 8/8/4
f 2/10/5 1/11/5 3/12/5 4/5/5
f 6/9/6 5/13/6 1/14/6 2/10/6
